<svg id="Layer_1" enable-background="new 0 0 511.999 511.999" height="512" viewBox="0 0 511.999 511.999" width="512" xmlns="http://www.w3.org/2000/svg"><g><g><path d="m273.589 432.646v64.356h-110.181v-64.356c0-8.278 6.717-14.997 15.016-14.997h80.148c8.29.001 15.017 6.719 15.017 14.997z" fill="#f6f6f6"/><path d="m273.589 432.646v64.356h-55.09v-79.352h40.074c8.289 0 15.016 6.718 15.016 14.996z" fill="#efefef"/><path d="m358.336 126.122h-308.873c-22.104 0-40.094 17.966-40.094 40.041v220.633l209.129 29.994 209.129-29.994v-264.63z" fill="#d7ffff"/><path d="m358.336 126.122h-139.837v290.668l209.129-29.994v-264.629z" fill="#98f9ff"/><path d="m427.628 386.796v20.806c0 22.085-17.99 40.041-40.094 40.041h-338.071c-22.104 0-40.094-17.956-40.094-40.041v-20.806z" fill="#454554"/><path d="m313.853 497.003c0 8.278-6.717 14.997-15.016 14.997h-160.687c-8.289 0-15.016-6.719-15.016-14.997 0-8.288 6.727-14.997 15.016-14.997h160.686c8.3 0 15.017 6.708 15.017 14.997z" fill="#454554"/><g fill="#2e2e2e"><path d="m313.853 497.003c0 8.278-6.717 14.997-15.016 14.997h-80.338v-29.994h80.338c8.299 0 15.016 6.708 15.016 14.997z"/><path d="m427.628 386.796v20.806c0 22.085-17.99 40.041-40.094 40.041h-169.035v-60.847z"/></g></g><path d="m316.859 115.009-28.69 23.44c-11.84 9.64-19.08 23.92-19.86 39.18-.78 15.25 4.97 30.2 15.77 41 10.15 10.15 23.96 15.84 38.25 15.84.9 0 1.79-.03 2.69-.07 15.23-.76 29.5-7.97 39.17-19.78l23.5-28.79-7.85-64.84z" fill="#ff9d21"/><path d="m495.129 54.159-107.44 131.67-70.83-70.82 131.6-107.5c13.24-10.81 32.34-9.85 44.42 2.24 12.09 12.08 13.05 31.17 2.25 44.41z" fill="#2e2e2e"/><g fill="#ffd845"><path d="m294.639 291.469c-11.27 11.27-28 16.54-49.71 15.67-10.62-.43-19.36.41-26.43 1.82-17.1 3.4-24.35 10.12-24.44 10.21-1.47 1.47-3.39 2.2-5.31 2.2s-3.84-.73-5.3-2.2c-2.93-2.93-2.93-7.68 0-10.6.07-.08 13.49-14.66 12.04-50.88-.88-21.71 4.4-38.44 15.67-49.71 2.3-2.3 4.75-4.39 7.34-6.25 9.96-7.17 21.88-11.04 34.4-11.04 15.77 0 30.59 6.14 41.74 17.29 23.02 23.02 23.02 60.47 0 83.49z"/><path d="m294.639 291.469c-11.27 11.27-28 16.54-49.71 15.67-10.62-.43-19.36.41-26.43 1.82v-107.23c9.96-7.17 21.88-11.04 34.4-11.04 15.77 0 30.59 6.14 41.74 17.29 23.02 23.02 23.02 60.47 0 83.49z"/></g></g></svg>